<svg xmlns="http://www.w3.org/2000/svg" viewBox="0 0 512 512" width="512" height="512" role="img" aria-label="Vasco Engineering">
  <rect width="512" height="512" rx="112" fill="#0a0a0a"></rect>
  <g fill="#ffffff" shape-rendering="crispEdges">
    <rect x="91" y="91" width="22" height="22"></rect>
    <rect x="113" y="91" width="22" height="22"></rect>
    <rect x="245" y="91" width="22" height="22"></rect>
    <rect x="377" y="91" width="22" height="22"></rect>
    <rect x="399" y="91" width="22" height="22"></rect>
    <rect x="91" y="113" width="22" height="22"></rect>
    <rect x="113" y="113" width="22" height="22"></rect>
    <rect x="135" y="113" width="22" height="22"></rect>
    <rect x="223" y="113" width="22" height="22"></rect>
    <rect x="245" y="113" width="22" height="22"></rect>
    <rect x="267" y="113" width="22" height="22"></rect>
    <rect x="355" y="113" width="22" height="22"></rect>
    <rect x="377" y="113" width="22" height="22"></rect>
    <rect x="399" y="113" width="22" height="22"></rect>
    <rect x="113" y="135" width="22" height="22"></rect>
    <rect x="135" y="135" width="22" height="22"></rect>
    <rect x="157" y="135" width="22" height="22"></rect>
    <rect x="223" y="135" width="22" height="22"></rect>
    <rect x="245" y="135" width="22" height="22"></rect>
    <rect x="267" y="135" width="22" height="22"></rect>
    <rect x="333" y="135" width="22" height="22"></rect>
    <rect x="355" y="135" width="22" height="22"></rect>
    <rect x="377" y="135" width="22" height="22"></rect>
    <rect x="135" y="157" width="22" height="22"></rect>
    <rect x="157" y="157" width="22" height="22"></rect>
    <rect x="223" y="157" width="22" height="22"></rect>
    <rect x="245" y="157" width="22" height="22"></rect>
    <rect x="267" y="157" width="22" height="22"></rect>
    <rect x="333" y="157" width="22" height="22"></rect>
    <rect x="355" y="157" width="22" height="22"></rect>
    <rect x="179" y="179" width="22" height="22"></rect>
    <rect x="223" y="179" width="22" height="22"></rect>
    <rect x="245" y="179" width="22" height="22"></rect>
    <rect x="267" y="179" width="22" height="22"></rect>
    <rect x="311" y="179" width="22" height="22"></rect>
    <rect x="245" y="201" width="22" height="22"></rect>
    <rect x="113" y="223" width="22" height="22"></rect>
    <rect x="135" y="223" width="22" height="22"></rect>
    <rect x="157" y="223" width="22" height="22"></rect>
    <rect x="179" y="223" width="22" height="22"></rect>
    <rect x="311" y="223" width="22" height="22"></rect>
    <rect x="333" y="223" width="22" height="22"></rect>
    <rect x="355" y="223" width="22" height="22"></rect>
    <rect x="377" y="223" width="22" height="22"></rect>
    <rect x="91" y="245" width="22" height="22"></rect>
    <rect x="113" y="245" width="22" height="22"></rect>
    <rect x="135" y="245" width="22" height="22"></rect>
    <rect x="157" y="245" width="22" height="22"></rect>
    <rect x="179" y="245" width="22" height="22"></rect>
    <rect x="201" y="245" width="22" height="22"></rect>
    <rect x="289" y="245" width="22" height="22"></rect>
    <rect x="311" y="245" width="22" height="22"></rect>
    <rect x="333" y="245" width="22" height="22"></rect>
    <rect x="355" y="245" width="22" height="22"></rect>
    <rect x="377" y="245" width="22" height="22"></rect>
    <rect x="399" y="245" width="22" height="22"></rect>
    <rect x="113" y="267" width="22" height="22"></rect>
    <rect x="135" y="267" width="22" height="22"></rect>
    <rect x="157" y="267" width="22" height="22"></rect>
    <rect x="179" y="267" width="22" height="22"></rect>
    <rect x="311" y="267" width="22" height="22"></rect>
    <rect x="333" y="267" width="22" height="22"></rect>
    <rect x="355" y="267" width="22" height="22"></rect>
    <rect x="377" y="267" width="22" height="22"></rect>
    <rect x="245" y="289" width="22" height="22"></rect>
    <rect x="179" y="311" width="22" height="22"></rect>
    <rect x="223" y="311" width="22" height="22"></rect>
    <rect x="245" y="311" width="22" height="22"></rect>
    <rect x="267" y="311" width="22" height="22"></rect>
    <rect x="311" y="311" width="22" height="22"></rect>
    <rect x="135" y="333" width="22" height="22"></rect>
    <rect x="157" y="333" width="22" height="22"></rect>
    <rect x="223" y="333" width="22" height="22"></rect>
    <rect x="245" y="333" width="22" height="22"></rect>
    <rect x="267" y="333" width="22" height="22"></rect>
    <rect x="333" y="333" width="22" height="22"></rect>
    <rect x="355" y="333" width="22" height="22"></rect>
    <rect x="113" y="355" width="22" height="22"></rect>
    <rect x="135" y="355" width="22" height="22"></rect>
    <rect x="157" y="355" width="22" height="22"></rect>
    <rect x="223" y="355" width="22" height="22"></rect>
    <rect x="245" y="355" width="22" height="22"></rect>
    <rect x="267" y="355" width="22" height="22"></rect>
    <rect x="333" y="355" width="22" height="22"></rect>
    <rect x="355" y="355" width="22" height="22"></rect>
    <rect x="377" y="355" width="22" height="22"></rect>
    <rect x="91" y="377" width="22" height="22"></rect>
    <rect x="113" y="377" width="22" height="22"></rect>
    <rect x="135" y="377" width="22" height="22"></rect>
    <rect x="223" y="377" width="22" height="22"></rect>
    <rect x="245" y="377" width="22" height="22"></rect>
    <rect x="267" y="377" width="22" height="22"></rect>
    <rect x="355" y="377" width="22" height="22"></rect>
    <rect x="377" y="377" width="22" height="22"></rect>
    <rect x="399" y="377" width="22" height="22"></rect>
    <rect x="91" y="399" width="22" height="22"></rect>
    <rect x="113" y="399" width="22" height="22"></rect>
    <rect x="245" y="399" width="22" height="22"></rect>
    <rect x="377" y="399" width="22" height="22"></rect>
    <rect x="399" y="399" width="22" height="22"></rect>
  </g>
</svg>